<svg width="87" height="27" viewBox="0 0 87 27" fill="none" xmlns="http://www.w3.org/2000/svg">
<g clip-path="url(#clip0)">
<path fill-rule="evenodd" clip-rule="evenodd" d="M53.9818 21.1458C49.006 24.8632 41.794 26.8466 35.5846 26.8466C26.878 26.8466 19.0399 23.5825 13.11 18.1537C12.6441 17.7268 13.0616 17.145 13.6206 17.4775C20.0201 21.2516 27.9328 23.5221 36.1064 23.5221C41.6189 23.5221 47.6829 22.366 53.2587 19.9671C54.101 19.6044 54.8055 20.5262 53.9818 21.1458" fill="#FE9900" fill-opacity="0.94"/>
<path fill-rule="evenodd" clip-rule="evenodd" d="M56.0504 18.7469C55.4168 17.9233 51.8462 18.3577 50.2435 18.5504C49.7553 18.6109 49.6807 18.1802 50.1205 17.8704C52.9643 15.8417 57.6307 16.4273 58.1748 17.1073C58.719 17.7911 58.0332 22.5323 55.3609 24.7952C54.9509 25.1428 54.5595 24.9576 54.7422 24.4967C55.3422 22.978 56.6877 19.5742 56.0504 18.7469" fill="#FE9900" fill-opacity="0.94"/>
<path fill-rule="evenodd" clip-rule="evenodd" d="M50.3553 3.54854V1.5765C50.3553 1.27805 50.579 1.07782 50.8473 1.07782H59.5576C59.8372 1.07782 60.0608 1.28182 60.0608 1.5765V3.2652C60.0571 3.54854 59.8223 3.91877 59.4048 4.50433L54.8912 11.0362C56.5685 10.9947 58.3389 11.2478 59.8595 12.1167C60.2024 12.3132 60.2956 12.6003 60.3217 12.8836V14.9879C60.3217 15.275 60.0086 15.6112 59.6806 15.4374C57.0008 14.0132 53.4414 13.8583 50.4783 15.4526C50.1764 15.6188 49.8596 15.2863 49.8596 14.9992V13.0007C49.8596 12.6796 49.8633 12.1318 50.1801 11.6445L55.4093 4.04344H50.8585C50.579 4.04344 50.3553 3.84321 50.3553 3.54854" fill="white"/>
<path fill-rule="evenodd" clip-rule="evenodd" d="M18.5816 15.853H15.9316C15.6782 15.8341 15.4769 15.6415 15.4583 15.3959V1.6105C15.4583 1.33472 15.6856 1.1156 15.9689 1.1156H18.44C18.6971 1.12693 18.9021 1.32716 18.9208 1.5765V3.37854H18.9692C19.614 1.63695 20.8253 0.824707 22.4578 0.824707C24.1164 0.824707 25.1525 1.63695 25.898 3.37854C26.539 1.63695 27.9963 0.824707 29.558 0.824707C30.6687 0.824707 31.8837 1.28938 32.6254 2.33207C33.464 3.49187 33.2926 5.1768 33.2926 6.65394L33.2889 15.3543C33.2889 15.6301 33.0615 15.853 32.7783 15.853H30.132C29.8674 15.8341 29.6549 15.6188 29.6549 15.3543V8.04797C29.6549 7.46618 29.7071 6.01548 29.5804 5.46391C29.3828 4.53834 28.7902 4.27767 28.0224 4.27767C27.3814 4.27767 26.7105 4.71212 26.4384 5.40725C26.1663 6.10237 26.1924 7.26595 26.1924 8.04797V15.3543C26.1924 15.6301 25.965 15.853 25.6818 15.853H23.0355C22.7672 15.8341 22.5584 15.6188 22.5584 15.3543L22.5547 8.04797C22.5547 6.51038 22.8044 4.24744 20.9222 4.24744C19.0177 4.24744 19.0922 6.45371 19.0922 8.04797V15.3543C19.0922 15.6301 18.8649 15.853 18.5816 15.853" fill="white"/>
<path fill-rule="evenodd" clip-rule="evenodd" d="M67.5598 0.824707C71.492 0.824707 73.6202 4.24744 73.6202 8.59953C73.6202 12.8043 71.2683 16.1401 67.5598 16.1401C63.6985 16.1401 61.5964 12.7174 61.5964 8.4522C61.5964 4.16055 63.7246 0.824707 67.5598 0.824707V0.824707ZM67.5822 3.63921C65.6292 3.63921 65.5062 6.3366 65.5062 8.01774C65.5062 9.70267 65.4801 13.2992 67.5598 13.2992C69.6135 13.2992 69.7104 10.3978 69.7104 8.62975C69.7104 7.46618 69.662 6.07593 69.3153 4.97279C69.0172 4.01322 68.4245 3.63921 67.5822 3.63921" fill="white"/>
<path fill-rule="evenodd" clip-rule="evenodd" d="M78.719 15.853H76.0802C75.8155 15.8341 75.6031 15.6188 75.6031 15.3543L75.5994 1.56517C75.6217 1.31205 75.8416 1.1156 76.11 1.1156H78.5662C78.7972 1.12693 78.9873 1.28561 79.0395 1.50094V3.60899H79.088C79.8297 1.72384 80.8695 0.824707 82.6996 0.824707C83.8885 0.824707 85.0476 1.25916 85.7931 2.44918C86.4863 3.55232 86.4863 5.40725 86.4863 6.74083V15.4186C86.4565 15.6603 86.2366 15.853 85.9757 15.853H83.3183C83.076 15.8341 82.8747 15.6528 82.8486 15.4186V7.93085C82.8486 6.42349 83.0201 4.21722 81.1901 4.21722C80.5453 4.21722 79.9527 4.65545 79.6582 5.32035C79.2855 6.16282 79.237 7.0015 79.237 7.93085V15.3543C79.2333 15.6301 79.0022 15.853 78.719 15.853" fill="white"/>
<path fill-rule="evenodd" clip-rule="evenodd" d="M43.4116 9.26821C43.4116 10.3147 43.4377 11.1874 42.9159 12.1167C42.4947 12.8723 41.8239 13.337 41.0822 13.337C40.0647 13.337 39.4683 12.5512 39.4683 11.3914C39.4683 9.10198 41.4921 8.68642 43.4116 8.68642V9.26821V9.26821ZM46.084 15.8152C45.9088 15.9739 45.6554 15.9852 45.4578 15.8795C44.5782 15.139 44.4179 14.7952 43.9371 14.0888C42.4836 15.5923 41.4511 16.0419 39.5689 16.0419C37.3364 16.0419 35.6033 14.6479 35.6033 11.856C35.6033 9.67622 36.7661 8.19152 38.4284 7.46617C39.8671 6.82393 41.876 6.7106 43.4116 6.53304V6.18548C43.4116 5.54702 43.4601 4.79145 43.0874 4.23988C42.7668 3.74498 42.1481 3.54098 41.6002 3.54098C40.5902 3.54098 39.6919 4.0661 39.472 5.15412C39.4273 5.39591 39.2521 5.63391 39.0099 5.64524L36.4419 5.36568C36.2257 5.31657 35.9834 5.13901 36.0468 4.80278C36.6357 1.6445 39.4534 0.692474 41.9729 0.692474C43.2625 0.692474 44.9472 1.04004 45.9647 2.02983C47.2543 3.25008 47.1313 4.87834 47.1313 6.65015V10.836C47.1313 12.094 47.6456 12.6456 48.1302 13.3256C48.2979 13.5674 48.3352 13.8583 48.119 14.0396C47.5785 14.4968 46.6169 15.3468 46.0877 15.8228L46.084 15.8152" fill="white"/>
<path fill-rule="evenodd" clip-rule="evenodd" d="M8.67114 9.26841C8.67114 10.3149 8.69723 11.1876 8.17543 12.1169C7.75426 12.8725 7.0871 13.3372 6.34168 13.3372C5.32417 13.3372 4.73156 12.5514 4.73156 11.3916C4.73156 9.10218 6.75539 8.68662 8.67114 8.68662V9.26841V9.26841ZM11.3435 15.8154C11.1683 15.9741 10.9149 15.9854 10.7173 15.8797C9.83773 15.1392 9.68119 14.7954 9.19666 14.089C7.74308 15.5925 6.71439 16.0421 4.82846 16.0421C2.59963 16.0421 0.862793 14.6481 0.862793 11.8562C0.862793 9.67642 2.02939 8.19172 3.68796 7.46637C5.12663 6.82413 7.13556 6.7108 8.67114 6.53324V6.18568C8.67114 5.54722 8.71959 4.79165 8.3506 4.24008C8.02634 3.74518 7.40764 3.54118 6.86348 3.54118C5.85343 3.54118 4.95146 4.0663 4.73156 5.15432C4.68683 5.3961 4.51166 5.63411 4.27312 5.64544L1.7014 5.36588C1.48522 5.31677 1.24669 5.13921 1.30632 4.80298C1.89894 1.64469 4.71292 0.692673 7.23246 0.692673C8.52205 0.692673 10.2067 1.04024 11.2242 2.03003C12.5138 3.25028 12.3908 4.87854 12.3908 6.65035V10.8362C12.3908 12.0942 12.9052 12.6458 13.3897 13.3258C13.5611 13.5676 13.5984 13.8585 13.3822 14.0398C12.8418 14.497 11.8802 15.347 11.3509 15.823L11.3435 15.8154" fill="white"/>
</g>
<defs>
<clipPath id="clip0">
<rect x="0.862793" y="0.692459" width="85.6234" height="26.1541" fill="white"/>
</clipPath>
</defs>
</svg>
