<svg width="45" height="45" viewBox="0 0 45 45" fill="none" xmlns="http://www.w3.org/2000/svg">
<path d="M19.1189 19.771C18.0865 19.771 17.2715 20.685 17.2715 21.8001C17.2715 22.9152 18.1046 23.8293 19.1189 23.8293C20.1513 23.8293 20.9664 22.9152 20.9664 21.8001C20.9845 20.685 20.1513 19.771 19.1189 19.771ZM25.7299 19.771C24.6975 19.771 23.8824 20.685 23.8824 21.8001C23.8824 22.9152 24.7156 23.8293 25.7299 23.8293C26.7623 23.8293 27.5773 22.9152 27.5773 21.8001C27.5773 20.685 26.7623 19.771 25.7299 19.771Z" fill="white"/>
<path d="M34.5326 4.43341H10.2623C8.21564 4.43341 6.54932 6.11524 6.54932 8.19924V32.9148C6.54932 34.9988 8.21564 36.6807 10.2623 36.6807H30.8015L29.8416 33.2987L32.1599 35.4741L34.3515 37.5216L38.2456 40.9949V8.19924C38.2456 6.11524 36.5793 4.43341 34.5326 4.43341ZM27.5413 28.3081C27.5413 28.3081 26.8893 27.522 26.3459 26.8273C28.7186 26.1509 29.6242 24.6519 29.6242 24.6519C28.8816 25.1455 28.1752 25.4928 27.5413 25.7305C26.6357 26.1144 25.7663 26.3703 24.915 26.5166C23.1763 26.8456 21.5824 26.7542 20.224 26.4983C19.1916 26.2972 18.3041 26.0047 17.5615 25.7122C17.1449 25.5477 16.6921 25.3466 16.2393 25.0907C16.185 25.0541 16.1306 25.0358 16.0763 24.9993C16.0401 24.981 16.022 24.9627 16.0039 24.9444C15.6778 24.7616 15.4967 24.6336 15.4967 24.6336C15.4967 24.6336 16.3661 26.0961 18.6664 26.7908C18.123 27.4854 17.4528 28.3081 17.4528 28.3081C13.45 28.1801 11.9286 25.5294 11.9286 25.5294C11.9286 19.643 14.5368 14.8717 14.5368 14.8717C17.1449 12.8974 19.6263 12.9522 19.6263 12.9522L19.8074 13.1716C16.5472 14.1222 15.0439 15.5664 15.0439 15.5664C15.0439 15.5664 15.4424 15.347 16.1125 15.0362C18.0505 14.1771 19.5901 13.9394 20.224 13.8846C20.3327 13.8663 20.4232 13.848 20.5319 13.848C21.6367 13.7018 22.8865 13.6652 24.1906 13.8114C25.9112 14.0125 27.7587 14.5244 29.6423 15.5664C29.6423 15.5664 28.2115 14.1953 25.1324 13.2447L25.386 12.9522C25.386 12.9522 27.8673 12.8974 30.4755 14.8717C30.4755 14.8717 33.0836 19.643 33.0836 25.5294C33.0836 25.5294 31.5441 28.1801 27.5413 28.3081V28.3081Z" fill="white"/>
</svg>
