<svg width="29" height="28" viewBox="0 0 29 28" fill="none" xmlns="http://www.w3.org/2000/svg">
<path d="M14.5 0C6.49358 0 0 6.2685 0 14C0 20.1857 4.15425 25.4333 9.91679 27.2848C10.6406 27.4143 10.875 26.9803 10.875 26.6117V24.0053C6.84158 24.8523 6.00179 22.3533 6.00179 22.3533C5.34204 20.7352 4.39108 20.3047 4.39108 20.3047C3.07521 19.4355 4.49137 19.4542 4.49137 19.4542C5.94742 19.5522 6.7135 20.8973 6.7135 20.8973C8.00642 23.037 10.1053 22.4187 10.933 22.0605C11.0623 21.1563 11.4381 20.538 11.8538 20.1892C8.63354 19.8333 5.24779 18.6328 5.24779 13.2697C5.24779 11.7402 5.8145 10.4918 6.74129 9.51183C6.59146 9.15833 6.09483 7.73383 6.88267 5.8065C6.88267 5.8065 8.10067 5.43083 10.8714 7.2415C12.0278 6.93117 13.2675 6.776 14.5 6.77017C15.7325 6.776 16.9735 6.93117 18.1322 7.2415C20.9005 5.43083 22.1161 5.8065 22.1161 5.8065C22.9052 7.735 22.4085 9.1595 22.2587 9.51183C23.1891 10.4918 23.751 11.7413 23.751 13.2697C23.751 18.6468 20.3592 19.831 17.1305 20.1775C17.6501 20.6115 18.125 21.4632 18.125 22.7698V26.6117C18.125 26.9838 18.357 27.4213 19.0929 27.2837C24.8506 25.4298 29 20.1833 29 14C29 6.2685 22.5076 0 14.5 0Z" fill="white"/>
</svg>
