<svg width="23" height="23" viewBox="0 0 23 23" fill="none" xmlns="http://www.w3.org/2000/svg">
<g clip-path="url(#clip0)">
<path d="M5.09729 13.8992L4.29669 16.8879L1.37052 16.9498C0.496027 15.3278 0 13.4721 0 11.5C0 9.59302 0.463773 7.79471 1.28584 6.21126L3.89158 6.68887L5.03278 9.27834C4.79393 9.97468 4.66374 10.7222 4.66374 11.5C4.66383 12.3442 4.81675 13.153 5.09729 13.8992Z" fill="white"/>
<path d="M22.7989 9.35167C22.931 10.0473 22.9999 10.7658 22.9999 11.5C22.9999 12.3233 22.9133 13.1265 22.7484 13.9011C22.1886 16.5373 20.7258 18.8392 18.6994 20.4681L18.6988 20.4675L15.4175 20.3001L14.9531 17.401C16.2977 16.6125 17.3485 15.3784 17.902 13.9011H11.7527V9.35167H17.9917H22.7989Z" fill="white"/>
<path d="M18.6987 20.4675L18.6993 20.4681C16.7286 22.0522 14.2251 23 11.4998 23C7.12036 23 3.31274 20.5522 1.37036 16.9499L5.09713 13.8992C6.06829 16.4911 8.5686 18.3362 11.4998 18.3362C12.7598 18.3362 13.9401 17.9956 14.953 17.401L18.6987 20.4675Z" fill="white"/>
<path d="M18.8405 2.64752L15.115 5.69753C14.0667 5.0423 12.8276 4.66379 11.5 4.66379C8.50245 4.66379 5.95538 6.5935 5.03287 9.27834L1.28652 6.21126H1.28589C3.19983 2.52115 7.05548 0 11.5 0C14.2904 0 16.8488 0.993941 18.8405 2.64752Z" fill="white"/>
</g>
<defs>
<clipPath id="clip0">
<rect width="23" height="23" fill="white"/>
</clipPath>
</defs>
</svg>
