<svg width="41" height="41" viewBox="0 0 41 41" fill="none" xmlns="http://www.w3.org/2000/svg">
<g clip-path="url(#clip0)">
<path d="M20.9035 41.0003C20.7678 41.0003 20.632 41.0003 20.4953 40.9997C17.2815 41.0075 14.3121 40.9259 11.4243 40.7501C8.77669 40.589 6.35995 39.674 4.43495 38.1044C2.57751 36.5898 1.30909 34.5418 0.665024 32.0181C0.104477 29.821 0.0747604 27.6642 0.0462952 25.5781C0.02565 24.0813 0.00437927 22.3077 0 20.5041C0.00437927 18.6929 0.02565 16.9193 0.0462952 15.4225C0.0747604 13.3368 0.104477 11.18 0.665024 8.98251C1.30909 6.4588 2.57751 4.41087 4.43495 2.89626C6.35995 1.32661 8.77669 0.411651 11.4246 0.250556C14.3124 0.0750727 17.2825 -0.0068823 20.5031 0.000937834C23.7178 -0.00594388 26.6863 0.0750727 29.5742 0.250556C32.2217 0.411651 34.6385 1.32661 36.5635 2.89626C38.4212 4.41087 39.6893 6.4588 40.3334 8.98251C40.894 11.1797 40.9237 13.3368 40.9521 15.4225C40.9728 16.9193 40.9944 18.6929 40.9984 20.4966V20.5041C40.9944 22.3077 40.9728 24.0813 40.9521 25.5781C40.9237 27.6639 40.8943 29.8207 40.3334 32.0181C39.6893 34.5418 38.4212 36.5898 36.5635 38.1044C34.6385 39.674 32.2217 40.589 29.5742 40.7501C26.8087 40.9184 23.9678 41.0003 20.9035 41.0003V41.0003ZM20.4953 37.7966C23.6568 37.8041 26.5597 37.7243 29.3796 37.5529C31.3816 37.4312 33.1173 36.7815 34.5393 35.6219C35.8537 34.55 36.759 33.071 37.2298 31.2261C37.6965 29.3971 37.7234 27.4333 37.7493 25.5343C37.7697 24.0475 37.7909 22.2864 37.7953 20.5003C37.7909 18.7139 37.7697 16.9531 37.7493 15.4663C37.7234 13.5673 37.6965 11.6035 37.2298 9.77422C36.759 7.9293 35.8537 6.45036 34.5393 5.37837C33.1173 4.21912 31.3816 3.56942 29.3796 3.44774C26.5597 3.27601 23.6568 3.19687 20.5028 3.20375C17.3419 3.19624 14.4388 3.27601 11.6188 3.44774C9.61688 3.56942 7.88113 4.21912 6.45911 5.37837C5.14471 6.45036 4.23945 7.9293 3.76868 9.77422C3.30197 11.6035 3.27507 13.567 3.24911 15.4663C3.22877 16.9544 3.2075 18.7164 3.20312 20.5041C3.2075 22.2839 3.22877 24.0463 3.24911 25.5343C3.27507 27.4333 3.30197 29.3971 3.76868 31.2261C4.23945 33.071 5.14471 34.55 6.45911 35.6219C7.88113 36.7812 9.61688 37.4309 11.6188 37.5526C14.4388 37.7243 17.3425 37.8044 20.4953 37.7966V37.7966ZM20.419 30.5101C14.8998 30.5101 10.4092 26.0198 10.4092 20.5003C10.4092 14.9809 14.8998 10.4905 20.419 10.4905C25.9384 10.4905 30.4287 14.9809 30.4287 20.5003C30.4287 26.0198 25.9384 30.5101 20.419 30.5101V30.5101ZM20.419 13.6937C16.6659 13.6937 13.6123 16.7473 13.6123 20.5003C13.6123 24.2533 16.6659 27.307 20.419 27.307C24.1723 27.307 27.2256 24.2533 27.2256 20.5003C27.2256 16.7473 24.1723 13.6937 20.419 13.6937V13.6937ZM31.5498 7.28742C30.2232 7.28742 29.1475 8.36285 29.1475 9.68977C29.1475 11.0167 30.2232 12.0921 31.5498 12.0921C32.8768 12.0921 33.9522 11.0167 33.9522 9.68977C33.9522 8.36285 32.8768 7.28742 31.5498 7.28742Z" fill="white"/>
</g>
<defs>
<clipPath id="clip0">
<rect width="41" height="41" fill="white"/>
</clipPath>
</defs>
</svg>
