<svg width="153" height="137" viewBox="0 0 153 137" fill="none" xmlns="http://www.w3.org/2000/svg">
<g clip-path="url(#clip0)">
<path d="M45.7868 18.0103C49.0308 19.7555 53.5997 17.846 55.9916 13.7452C58.3836 9.64437 57.6929 4.90523 54.449 3.15999C51.205 1.41476 46.6361 3.32432 44.2441 7.42512C41.8521 11.5259 42.5428 16.2651 45.7868 18.0103Z" fill="#2E6FA3"/>
<path d="M126.22 27.4105C128.651 27.1265 130.322 24.5301 129.952 21.6113C129.583 18.6926 127.312 16.5567 124.881 16.8408C122.449 17.1248 120.778 19.7212 121.148 22.6399C121.518 25.5587 123.788 27.6946 126.22 27.4105Z" fill="#379DF0"/>
<path d="M90.1739 19.0951C62.087 12.3515 17.3696 32.5821 0 42.4291C58.0217 20.0365 14.0435 74.5336 12.5652 81.8253C11.8261 81.9868 40.6097 78.3668 40.6522 75.8826C41.7609 10.9318 95.0507 20.2659 90.1739 19.0951Z" fill="#2E6FA3"/>
<path d="M148.196 48.9792C128.978 25.4122 104.217 19.8756 94.6086 19.8756C131.565 26.9741 122.696 68.855 122.696 68.855C122.696 68.855 136.11 69.1932 136 68.855C120.848 22.3601 149.304 50.3389 148.196 48.9792Z" fill="#379DF0"/>
<path d="M26.2846 122.336C25.7642 122.336 25.3267 122.168 24.9719 121.833C24.6171 121.497 24.4397 121.084 24.4397 120.591V97.8774C24.4397 97.363 24.6171 96.9492 24.9719 96.636C25.3267 96.3005 25.7642 96.1328 26.2846 96.1328H34.7639C36.3722 96.1328 37.7795 96.4347 38.9858 97.0386C40.2157 97.6202 41.1736 98.4366 41.8595 99.4879C42.5691 100.539 42.9239 101.747 42.9239 103.111C42.9239 104.207 42.6046 105.203 41.966 106.097C41.351 106.97 40.4995 107.663 39.4115 108.178C40.9726 108.535 42.2261 109.24 43.1722 110.291C44.1183 111.343 44.5914 112.718 44.5914 114.418C44.5914 115.961 44.2011 117.326 43.4206 118.511C42.6637 119.697 41.5993 120.636 40.2275 121.33C38.8557 122.001 37.2828 122.336 35.5089 122.336H26.2846ZM28.1294 106.903H34.7639C36.112 106.903 37.2119 106.589 38.0633 105.963C38.9385 105.337 39.376 104.386 39.376 103.111C39.376 101.836 38.9385 100.897 38.0633 100.293C37.2119 99.6668 36.112 99.3537 34.7639 99.3537H28.1294V106.903ZM28.1294 119.115H35.5089C37.1173 119.115 38.4418 118.724 39.4825 117.941C40.5232 117.136 41.0435 115.961 41.0435 114.418C41.0435 112.987 40.5232 111.913 39.4825 111.197C38.4418 110.481 37.1173 110.124 35.5089 110.124H28.1294V119.115ZM51.4974 122.336C50.3148 122.336 49.7235 121.777 49.7235 120.659V105.661C49.7235 104.543 50.3148 103.984 51.4974 103.984C52.68 103.984 53.2713 104.543 53.2713 105.661V106.299C53.9809 105.516 54.8442 104.901 55.8612 104.453C56.9019 104.006 58.0254 103.782 59.2317 103.782C60.6508 103.782 61.7033 104.006 62.3892 104.453C63.0988 104.878 63.3708 105.393 63.2052 105.997C63.087 106.466 62.8505 106.78 62.4957 106.936C62.1409 107.07 61.727 107.093 61.2539 107.003C59.7402 106.713 58.3802 106.69 57.1739 106.936C55.9677 107.182 55.0098 107.641 54.3002 108.312C53.6143 108.983 53.2713 109.833 53.2713 110.862V120.659C53.2713 121.777 52.68 122.336 51.4974 122.336ZM69.1418 122.336C68.6214 122.336 68.1839 122.18 67.8291 121.866C67.498 121.531 67.3324 121.117 67.3324 120.625V105.695C67.3324 105.18 67.498 104.767 67.8291 104.453C68.1839 104.14 68.6214 103.984 69.1418 103.984C69.6858 103.984 70.1234 104.14 70.4545 104.453C70.7856 104.767 70.9512 105.18 70.9512 105.695V120.625C70.9512 121.117 70.7856 121.531 70.4545 121.866C70.1234 122.18 69.6858 122.336 69.1418 122.336ZM69.1418 100.998C68.5032 100.998 67.9474 100.785 67.4743 100.36C67.0249 99.9128 66.8002 99.3872 66.8002 98.7833C66.8002 98.1794 67.0249 97.6649 67.4743 97.24C67.9474 96.7926 68.5032 96.5689 69.1418 96.5689C69.7804 96.5689 70.3244 96.7926 70.7738 97.24C71.2468 97.6649 71.4834 98.1794 71.4834 98.7833C71.4834 99.3872 71.2468 99.9128 70.7738 100.36C70.3244 100.785 69.7804 100.998 69.1418 100.998ZM86.4819 122.47C84.637 122.47 82.9695 122.068 81.4794 121.262C80.013 120.435 78.8422 119.317 77.9671 117.907C77.1156 116.498 76.6899 114.91 76.6899 113.143C76.6899 111.376 77.0801 109.799 77.8607 108.412C78.6648 107.003 79.7528 105.896 81.1247 105.091C82.4965 104.263 84.0457 103.849 85.7723 103.849C87.1678 103.849 88.4568 104.129 89.6394 104.688C90.822 105.225 91.8154 105.963 92.6196 106.903V97.8439C92.6196 97.3294 92.7852 96.9156 93.1163 96.6025C93.4711 96.2893 93.9087 96.1328 94.429 96.1328C94.973 96.1328 95.4106 96.2893 95.7417 96.6025C96.0728 96.9156 96.2384 97.3294 96.2384 97.8439V113.143C96.2384 114.91 95.8008 116.498 94.9257 117.907C94.0742 119.317 92.9153 120.435 91.4488 121.262C89.9824 122.068 88.3267 122.47 86.4819 122.47ZM86.4819 119.451C87.6881 119.451 88.7643 119.182 89.7104 118.645C90.6565 118.086 91.4015 117.326 91.9455 116.364C92.4895 115.402 92.7615 114.329 92.7615 113.143C92.7615 111.935 92.4895 110.862 91.9455 109.922C91.4015 108.983 90.6565 108.245 89.7104 107.708C88.7643 107.149 87.6881 106.869 86.4819 106.869C85.2993 106.869 84.2231 107.149 83.2533 107.708C82.3073 108.245 81.5504 108.983 80.9827 109.922C80.4387 110.862 80.1667 111.935 80.1667 113.143C80.1667 114.329 80.4387 115.402 80.9827 116.364C81.5504 117.326 82.3073 118.086 83.2533 118.645C84.2231 119.182 85.2993 119.451 86.4819 119.451ZM110.718 122.47C108.944 122.47 107.371 122.079 105.999 121.296C104.651 120.491 103.587 119.395 102.806 118.008C102.026 116.599 101.636 114.988 101.636 113.177C101.636 111.343 102.049 109.732 102.877 108.345C103.729 106.936 104.888 105.84 106.354 105.057C107.821 104.252 109.512 103.849 111.428 103.849C113.32 103.849 114.999 104.252 116.465 105.057C117.932 105.84 119.079 106.936 119.907 108.345C120.758 109.732 121.184 111.343 121.184 113.177V120.424C121.184 122.191 120.77 123.79 119.942 125.221C119.114 126.675 117.956 127.827 116.465 128.677C114.999 129.527 113.296 129.952 111.357 129.952C109.677 129.952 108.104 129.639 106.638 129.013C105.172 128.386 103.93 127.469 102.913 126.262C102.605 125.881 102.487 125.49 102.558 125.087C102.653 124.685 102.889 124.36 103.268 124.114C103.693 123.846 104.131 123.756 104.58 123.846C105.053 123.935 105.432 124.159 105.716 124.517C106.354 125.277 107.158 125.87 108.128 126.295C109.098 126.72 110.198 126.933 111.428 126.933C112.563 126.933 113.604 126.675 114.55 126.161C115.519 125.646 116.288 124.886 116.856 123.879C117.423 122.873 117.707 121.643 117.707 120.189V118.545C116.974 119.753 116.004 120.714 114.798 121.43C113.592 122.124 112.232 122.47 110.718 122.47ZM111.428 119.451C112.657 119.451 113.745 119.182 114.692 118.645C115.638 118.109 116.371 117.371 116.891 116.431C117.435 115.492 117.707 114.407 117.707 113.177C117.707 111.946 117.435 110.862 116.891 109.922C116.371 108.96 115.638 108.211 114.692 107.674C113.745 107.137 112.657 106.869 111.428 106.869C110.198 106.869 109.11 107.137 108.164 107.674C107.217 108.211 106.472 108.96 105.928 109.922C105.384 110.862 105.112 111.946 105.112 113.177C105.112 114.407 105.384 115.492 105.928 116.431C106.472 117.371 107.217 118.109 108.164 118.645C109.11 119.182 110.198 119.451 111.428 119.451ZM135.688 122.47C133.725 122.47 131.975 122.079 130.437 121.296C128.923 120.491 127.729 119.395 126.854 118.008C126.002 116.599 125.577 114.988 125.577 113.177C125.577 111.343 125.979 109.732 126.783 108.345C127.611 106.936 128.746 105.84 130.189 105.057C131.632 104.252 133.287 103.849 135.156 103.849C137.001 103.849 138.585 104.241 139.91 105.024C141.234 105.784 142.24 106.847 142.926 108.211C143.635 109.553 143.99 111.108 143.99 112.875C143.99 113.3 143.836 113.658 143.529 113.948C143.221 114.217 142.831 114.351 142.358 114.351H128.876C129.136 115.894 129.881 117.158 131.111 118.142C132.365 119.104 133.89 119.585 135.688 119.585C136.421 119.585 137.166 119.462 137.923 119.216C138.704 118.947 139.33 118.645 139.803 118.31C140.158 118.064 140.537 117.941 140.939 117.941C141.365 117.919 141.731 118.03 142.039 118.276C142.441 118.612 142.654 118.981 142.677 119.384C142.701 119.786 142.512 120.133 142.11 120.424C141.305 121.028 140.3 121.52 139.094 121.9C137.911 122.28 136.776 122.47 135.688 122.47ZM135.156 106.735C133.406 106.735 131.998 107.193 130.934 108.11C129.87 109.028 129.195 110.213 128.912 111.667H140.726C140.513 110.235 139.934 109.061 138.987 108.144C138.041 107.205 136.764 106.735 135.156 106.735Z" fill="#EF534F"/>
</g>
<defs>
<clipPath id="clip0">
<rect width="153" height="137" fill="white"/>
</clipPath>
</defs>
</svg>
