<svg width="63" height="61" viewBox="0 0 63 61" fill="none" xmlns="http://www.w3.org/2000/svg">
<g clip-path="url(#clip0)">
<path d="M18.8533 8.01919C20.1891 8.79627 22.0704 7.94602 23.0553 6.12012C24.0402 4.29422 23.7558 2.18409 22.4201 1.40702C21.0843 0.629943 19.203 1.48019 18.2181 3.30609C17.2331 5.13199 17.5175 7.24212 18.8533 8.01919Z" fill="#4A5259"/>
<path d="M51.9726 12.2047C52.9738 12.0782 53.662 10.9221 53.5097 9.62254C53.3575 8.32295 52.4225 7.37195 51.4214 7.49842C50.4202 7.62489 49.732 8.78094 49.8843 10.0805C50.0365 11.3801 50.9715 12.3311 51.9726 12.2047Z" fill="#75818B"/>
<path d="M37.1304 8.50218C25.5652 5.49954 7.15217 14.5073 0 18.8918C23.8913 8.92133 5.78261 33.1865 5.17391 36.4332C4.86956 36.5051 16.7217 34.8932 16.7391 33.7871C17.1956 4.86742 39.1385 9.02351 37.1304 8.50218Z" fill="#4A5259"/>
<path d="M61.0218 21.8083C53.1087 11.3149 42.9131 8.84973 38.9565 8.84973C54.1739 12.0104 50.5218 30.658 50.5218 30.658C50.5218 30.658 56.0454 30.8086 56 30.658C49.7609 9.95598 61.4783 22.4137 61.0218 21.8083Z" fill="#75818B"/>
<path d="M10.8231 54.4708C10.6089 54.4708 10.4287 54.3961 10.2826 54.2468C10.1365 54.0974 10.0635 53.9131 10.0635 53.694V43.5805C10.0635 43.3514 10.1365 43.1672 10.2826 43.0277C10.4287 42.8783 10.6089 42.8036 10.8231 42.8036H14.3146C14.9769 42.8036 15.5563 42.9381 16.053 43.207C16.5595 43.4659 16.9539 43.8294 17.2363 44.2975C17.5285 44.7656 17.6746 45.3034 17.6746 45.9109C17.6746 46.3989 17.5431 46.8421 17.2802 47.2405C17.027 47.6289 16.6763 47.9376 16.2283 48.1667C16.8711 48.326 17.3873 48.6397 17.7769 49.1078C18.1664 49.5759 18.3612 50.1884 18.3612 50.9453C18.3612 51.6325 18.2005 52.24 17.8791 52.7678C17.5675 53.2956 17.1292 53.7139 16.5643 54.0227C15.9995 54.3214 15.3518 54.4708 14.6214 54.4708H10.8231ZM11.5828 47.599H14.3146C14.8697 47.599 15.3226 47.4596 15.6732 47.1807C16.0336 46.9019 16.2137 46.4786 16.2137 45.9109C16.2137 45.3432 16.0336 44.925 15.6732 44.6561C15.3226 44.3772 14.8697 44.2378 14.3146 44.2378H11.5828V47.599ZM11.5828 53.0367H14.6214C15.2837 53.0367 15.829 52.8624 16.2576 52.5139C16.6861 52.1553 16.9003 51.6325 16.9003 50.9453C16.9003 50.3079 16.6861 49.8299 16.2576 49.5112C15.829 49.1925 15.2837 49.0331 14.6214 49.0331H11.5828V53.0367ZM21.2049 54.4708C20.7179 54.4708 20.4745 54.2219 20.4745 53.7239V47.0463C20.4745 46.5483 20.7179 46.2993 21.2049 46.2993C21.6918 46.2993 21.9353 46.5483 21.9353 47.0463V47.3301C22.2275 46.9815 22.583 46.7076 23.0018 46.5085C23.4303 46.3093 23.8929 46.2097 24.3896 46.2097C24.9739 46.2097 25.4073 46.3093 25.6898 46.5085C25.9819 46.6977 26.0939 46.9268 26.0258 47.1957C25.9771 47.4048 25.8797 47.5442 25.7336 47.6139C25.5875 47.6737 25.4171 47.6837 25.2223 47.6438C24.599 47.5143 24.039 47.5044 23.5423 47.6139C23.0456 47.7235 22.6512 47.9276 22.359 48.2264C22.0765 48.5252 21.9353 48.9036 21.9353 49.3618V53.7239C21.9353 54.2219 21.6918 54.4708 21.2049 54.4708ZM28.4702 54.4708C28.256 54.4708 28.0758 54.4011 27.9297 54.2617C27.7934 54.1123 27.7252 53.9281 27.7252 53.709V47.0612C27.7252 46.8321 27.7934 46.6479 27.9297 46.5085C28.0758 46.369 28.256 46.2993 28.4702 46.2993C28.6942 46.2993 28.8744 46.369 29.0107 46.5085C29.1471 46.6479 29.2153 46.8321 29.2153 47.0612V53.709C29.2153 53.9281 29.1471 54.1123 29.0107 54.2617C28.8744 54.4011 28.6942 54.4708 28.4702 54.4708ZM28.4702 44.9698C28.2073 44.9698 27.9784 44.8752 27.7836 44.6859C27.5986 44.4867 27.506 44.2527 27.506 43.9838C27.506 43.7149 27.5986 43.4859 27.7836 43.2966C27.9784 43.0974 28.2073 42.9979 28.4702 42.9979C28.7332 42.9979 28.9572 43.0974 29.1422 43.2966C29.337 43.4859 29.4344 43.7149 29.4344 43.9838C29.4344 44.2527 29.337 44.4867 29.1422 44.6859C28.9572 44.8752 28.7332 44.9698 28.4702 44.9698ZM35.6103 54.5306C34.8506 54.5306 34.164 54.3513 33.5504 53.9928C32.9466 53.6243 32.4645 53.1263 32.1042 52.4989C31.7536 51.8715 31.5783 51.1644 31.5783 50.3776C31.5783 49.5908 31.739 48.8887 32.0603 48.2712C32.3915 47.6438 32.8395 47.1508 33.4043 46.7923C33.9692 46.4238 34.6071 46.2396 35.3181 46.2396C35.8927 46.2396 36.4235 46.3641 36.9104 46.613C37.3974 46.8521 37.8064 47.1807 38.1376 47.599V43.5655C38.1376 43.3365 38.2057 43.1522 38.3421 43.0128C38.4882 42.8734 38.6683 42.8036 38.8826 42.8036C39.1066 42.8036 39.2868 42.8734 39.4231 43.0128C39.5595 43.1522 39.6276 43.3365 39.6276 43.5655V50.3776C39.6276 51.1644 39.4475 51.8715 39.0871 52.4989C38.7365 53.1263 38.2593 53.6243 37.6555 53.9928C37.0516 54.3513 36.3699 54.5306 35.6103 54.5306ZM35.6103 53.1861C36.1069 53.1861 36.5501 53.0666 36.9396 52.8276C37.3292 52.5786 37.636 52.24 37.86 51.8117C38.084 51.3835 38.196 50.9054 38.196 50.3776C38.196 49.8398 38.084 49.3618 37.86 48.9435C37.636 48.5252 37.3292 48.1965 36.9396 47.9575C36.5501 47.7085 36.1069 47.5841 35.6103 47.5841C35.1233 47.5841 34.6802 47.7085 34.2809 47.9575C33.8913 48.1965 33.5796 48.5252 33.3459 48.9435C33.1219 49.3618 33.0099 49.8398 33.0099 50.3776C33.0099 50.9054 33.1219 51.3835 33.3459 51.8117C33.5796 52.24 33.8913 52.5786 34.2809 52.8276C34.6802 53.0666 35.1233 53.1861 35.6103 53.1861ZM45.5898 54.5306C44.8594 54.5306 44.2117 54.3563 43.6469 54.0077C43.0917 53.6492 42.6535 53.1612 42.3321 52.5437C42.0107 51.9163 41.85 51.1992 41.85 50.3925C41.85 49.5759 42.0204 48.8588 42.3613 48.2414C42.7119 47.6139 43.1891 47.1259 43.793 46.7774C44.3968 46.4188 45.0931 46.2396 45.882 46.2396C46.6611 46.2396 47.3526 46.4188 47.9564 46.7774C48.5603 47.1259 49.0326 47.6139 49.3735 48.2414C49.7241 48.8588 49.8994 49.5759 49.8994 50.3925V53.6193C49.8994 54.4061 49.729 55.1182 49.3881 55.7556C49.0472 56.4029 48.57 56.9158 47.9564 57.2943C47.3526 57.6727 46.6514 57.8619 45.8528 57.8619C45.1613 57.8619 44.5136 57.7225 43.9098 57.4437C43.306 57.1648 42.7947 56.7565 42.3759 56.2187C42.2493 56.0494 42.2006 55.8751 42.2298 55.6958C42.2688 55.5165 42.3662 55.3721 42.522 55.2626C42.6973 55.1431 42.8775 55.1032 43.0625 55.1431C43.2573 55.1829 43.4131 55.2825 43.53 55.4419C43.7929 55.7805 44.1241 56.0444 44.5234 56.2336C44.9227 56.4228 45.3756 56.5174 45.882 56.5174C46.3495 56.5174 46.778 56.4029 47.1676 56.1739C47.5669 55.9448 47.8834 55.6062 48.1171 55.158C48.3509 54.7099 48.4677 54.1621 48.4677 53.5148V52.7828C48.1658 53.3205 47.7665 53.7488 47.2698 54.0675C46.7731 54.3762 46.2131 54.5306 45.5898 54.5306ZM45.882 53.1861C46.3884 53.1861 46.8364 53.0666 47.226 52.8276C47.6156 52.5885 47.9175 52.2599 48.1317 51.8416C48.3557 51.4233 48.4677 50.9403 48.4677 50.3925C48.4677 49.8448 48.3557 49.3618 48.1317 48.9435C47.9175 48.5152 47.6156 48.1816 47.226 47.9426C46.8364 47.7036 46.3884 47.5841 45.882 47.5841C45.3756 47.5841 44.9276 47.7036 44.538 47.9426C44.1484 48.1816 43.8417 48.5152 43.6177 48.9435C43.3937 49.3618 43.2816 49.8448 43.2816 50.3925C43.2816 50.9403 43.3937 51.4233 43.6177 51.8416C43.8417 52.2599 44.1484 52.5885 44.538 52.8276C44.9276 53.0666 45.3756 53.1861 45.882 53.1861ZM55.8716 54.5306C55.0633 54.5306 54.3426 54.3563 53.7095 54.0077C53.0862 53.6492 52.5944 53.1612 52.234 52.5437C51.8834 51.9163 51.7081 51.1992 51.7081 50.3925C51.7081 49.5759 51.8737 48.8588 52.2048 48.2414C52.5457 47.6139 53.0132 47.1259 53.6073 46.7774C54.2013 46.4188 54.8831 46.2396 55.6525 46.2396C56.4121 46.2396 57.0646 46.4139 57.61 46.7624C58.1554 47.101 58.5693 47.5741 58.8518 48.1816C59.144 48.7792 59.29 49.4713 59.29 50.2581C59.29 50.4473 59.2267 50.6067 59.1001 50.7361C58.9735 50.8556 58.8128 50.9154 58.618 50.9154H53.0667C53.1739 51.6026 53.4807 52.1653 53.9871 52.6035C54.5033 53.0317 55.1314 53.2459 55.8716 53.2459C56.1735 53.2459 56.4803 53.1911 56.792 53.0815C57.1133 52.962 57.3714 52.8276 57.5662 52.6782C57.7123 52.5686 57.8681 52.5139 58.0337 52.5139C58.209 52.5039 58.36 52.5537 58.4866 52.6632C58.6521 52.8126 58.7398 52.977 58.7495 53.1562C58.7593 53.3355 58.6813 53.4899 58.5158 53.6193C58.1847 53.8882 57.7707 54.1073 57.274 54.2766C56.7871 54.4459 56.3196 54.5306 55.8716 54.5306ZM55.6525 47.5243C54.9318 47.5243 54.3523 47.7285 53.914 48.1368C53.4758 48.5451 53.1982 49.073 53.0813 49.7203H57.946C57.8584 49.0829 57.6198 48.5601 57.2302 48.1517C56.8407 47.7334 56.3147 47.5243 55.6525 47.5243Z" fill="#FFFEFE"/>
</g>
<defs>
<clipPath id="clip0">
<rect width="63" height="61" fill="white"/>
</clipPath>
</defs>
</svg>
